<?xml version="1.0" encoding="utf-8"?>
<!-- Generator: Adobe Illustrator 16.0.0, SVG Export Plug-In . SVG Version: 6.00 Build 0)  -->
<!DOCTYPE svg PUBLIC "-//W3C//DTD SVG 1.1//EN" "http://www.w3.org/Graphics/SVG/1.1/DTD/svg11.dtd">
<svg version="1.1" id="Ebene_1" xmlns="http://www.w3.org/2000/svg" xmlns:xlink="http://www.w3.org/1999/xlink" x="0px" y="0px"
	 width="40px" height="40px" viewBox="233.035 -150.5 40 40" enable-background="new 233.035 -150.5 40 40" xml:space="preserve">
<path fill="#FFFFFF" d="M270.791-143.665h-35.514c-0.549,0-0.992-0.547-0.992-1.206v-3.187c0-0.659,0.443-1.193,0.992-1.193h35.514
	c0.551,0,0.994,0.534,0.994,1.193v3.186C271.785-144.2,271.342-143.665,270.791-143.665z M270.791-127.713h-35.514
	c-0.549,0-0.992-0.521-0.992-1.18v-3.215c0-0.66,0.455-1.192,0.992-1.192h35.514c0.551,0,0.994,0.532,0.994,1.192v3.215
	C271.785-128.233,271.342-127.713,270.791-127.713z M270.791-111.75h-35.514c-0.549,0-0.992-0.546-0.992-1.204v-3.186
	c0-0.66,0.455-1.2,0.992-1.2h35.514c0.551,0,0.994,0.54,0.994,1.2v3.186C271.785-112.296,271.342-111.75,270.791-111.75z"/>
</svg>
