<?xml version="1.0" encoding="utf-8"?>
<!-- Generator: Adobe Illustrator 16.0.0, SVG Export Plug-In . SVG Version: 6.00 Build 0)  -->
<!DOCTYPE svg PUBLIC "-//W3C//DTD SVG 1.1//EN" "http://www.w3.org/Graphics/SVG/1.1/DTD/svg11.dtd">
<svg version="1.1" id="Ebene_1" xmlns="http://www.w3.org/2000/svg" xmlns:xlink="http://www.w3.org/1999/xlink" x="0px" y="0px"
	 width="50px" height="50px" viewBox="0 0 50 50" enable-background="new 0 0 50 50" xml:space="preserve">
<path fill="#003599" d="M50,2.757v44.479c0,1.518-1.245,2.746-2.759,2.746H34.497V30.641h6.494l0.977-7.551h-7.474v-4.814
	c0-2.194,0.589-3.675,3.729-3.675h3.99V7.85c-0.686-0.095-3.047-0.305-5.813-0.305c-5.762,0-9.717,3.517-9.717,9.975v5.57h-6.517
	v7.551h6.517V50H2.755C1.237,50,0,48.754,0,47.24V2.757C0,1.236,1.236,0,2.755,0H47.24C48.755,0,50,1.236,50,2.757z"/>
</svg>
