<?xml version="1.0" encoding="utf-8"?>
<!-- Generator: Adobe Illustrator 16.0.0, SVG Export Plug-In . SVG Version: 6.00 Build 0)  -->
<!DOCTYPE svg PUBLIC "-//W3C//DTD SVG 1.1//EN" "http://www.w3.org/Graphics/SVG/1.1/DTD/svg11.dtd">
<svg version="1.1" id="Ebene_1" xmlns="http://www.w3.org/2000/svg" xmlns:xlink="http://www.w3.org/1999/xlink" x="0px" y="0px"
	 width="30px" height="25.178px" viewBox="-11 765.411 30 25.178" enable-background="new -11 765.411 30 25.178"
	 xml:space="preserve">
<path fill="#FFFFFF" d="M18.197,769.161h-28.393c-0.444,0-0.804-0.36-0.804-0.804v-2.143c0-0.444,0.36-0.804,0.804-0.804h28.393
	c0.444,0,0.804,0.359,0.804,0.804v2.143C19,768.801,18.641,769.161,18.197,769.161z M18.197,779.875h-28.393
	c-0.444,0-0.804-0.359-0.804-0.804v-2.143c0-0.443,0.36-0.804,0.804-0.804h28.393c0.444,0,0.804,0.36,0.804,0.804v2.143
	C19,779.516,18.641,779.875,18.197,779.875z M18.197,790.589h-28.393c-0.444,0-0.804-0.359-0.804-0.803v-2.144
	c0-0.443,0.36-0.804,0.804-0.804h28.393c0.444,0,0.804,0.36,0.804,0.804v2.144C19,790.229,18.641,790.589,18.197,790.589z"/>
</svg>
