<?xml version="1.0" encoding="utf-8"?>
<!-- Generator: Adobe Illustrator 16.0.0, SVG Export Plug-In . SVG Version: 6.00 Build 0)  -->
<!DOCTYPE svg PUBLIC "-//W3C//DTD SVG 1.1//EN" "http://www.w3.org/Graphics/SVG/1.1/DTD/svg11.dtd">
<svg version="1.1" id="Ebene_1" xmlns="http://www.w3.org/2000/svg" xmlns:xlink="http://www.w3.org/1999/xlink" x="0px" y="0px"
	 width="50px" height="50px" viewBox="0 4.465 50 50" enable-background="new 0 4.465 50 50" xml:space="preserve">
<path d="M50,7.222v44.48c0,1.518-1.245,2.745-2.759,2.745H34.497V35.105h6.494l0.977-7.55h-7.474v-4.815
	c0-2.194,0.589-3.675,3.728-3.675h3.991v-6.75c-0.685-0.095-3.047-0.305-5.812-0.305c-5.762,0-9.717,3.517-9.717,9.975v5.57h-6.516
	v7.551h6.516v19.36H2.755C1.237,54.465,0,53.22,0,51.706V7.222c0-1.521,1.236-2.757,2.755-2.757H47.24
	C48.755,4.465,50,5.701,50,7.222z"/>
</svg>
