<svg version="1.1" xmlns="http://www.w3.org/2000/svg" xmlns:xlink="http://www.w3.org/1999/xlink">

  <defs>
    <style>
      g {
        display: none;
      }
      g:target,
      g:target g {
        display: inline;
      }
      .white {
        color: #ffffff;
      }
      .gray {
        color: #777777;
      }
    </style>

    <symbol id="icon-menu" viewBox="-11 765.411 30 25.178">
      <title>Icon-Menu</title>
      <path d="M18.197,769.161h-28.393c-0.444,0-0.804-0.36-0.804-0.804v-2.143c0-0.444,0.36-0.804,0.804-0.804h28.393
            	c0.444,0,0.804,0.359,0.804,0.804v2.143C19,768.801,18.641,769.161,18.197,769.161z M18.197,779.875h-28.393
            	c-0.444,0-0.804-0.359-0.804-0.804v-2.143c0-0.443,0.36-0.804,0.804-0.804h28.393c0.444,0,0.804,0.36,0.804,0.804v2.143
            	C19,779.516,18.641,779.875,18.197,779.875z M18.197,790.589h-28.393c-0.444,0-0.804-0.359-0.804-0.803v-2.144
            	c0-0.443,0.36-0.804,0.804-0.804h28.393c0.444,0,0.804,0.36,0.804,0.804v2.144C19,790.229,18.641,790.589,18.197,790.589z"/>


  </defs>
  <!-- <g id="language-passive">
    <use class="black" xlink:href="#language"/>
  </g> -->
</svg>
